<?xml version="1.0" encoding="UTF-8" standalone="no"?>
<!-- Created with Inkscape (http://www.inkscape.org/) -->

<svg
   width="468.59143mm"
   height="87.4888mm"
   viewBox="0 0 468.59143 87.4888"
   version="1.1"
   id="svg5"
   inkscape:version="1.1.2 (0a00cf5339, 2022-02-04)"
   sodipodi:docname="mepylome.svg"
   xmlns:inkscape="http://www.inkscape.org/namespaces/inkscape"
   xmlns:sodipodi="http://sodipodi.sourceforge.net/DTD/sodipodi-0.dtd"
   xmlns="http://www.w3.org/2000/svg"
   xmlns:svg="http://www.w3.org/2000/svg">
  <sodipodi:namedview
     id="namedview7"
     pagecolor="#ffffff"
     bordercolor="#666666"
     borderopacity="1.0"
     inkscape:pageshadow="2"
     inkscape:pageopacity="0.0"
     inkscape:pagecheckerboard="0"
     inkscape:document-units="mm"
     showgrid="false"
     units="mm"
     inkscape:zoom="0.25"
     inkscape:cx="1304"
     inkscape:cy="356"
     inkscape:window-width="1920"
     inkscape:window-height="1024"
     inkscape:window-x="0"
     inkscape:window-y="28"
     inkscape:window-maximized="1"
     inkscape:current-layer="layer1"
     fit-margin-top="0"
     fit-margin-left="0"
     fit-margin-right="0"
     fit-margin-bottom="0" />
  <defs
     id="defs2">
    <rect
       x="261.41867"
       y="3.2701187"
       width="2143.1655"
       height="478.58594"
       id="rect6930" />
  </defs>
  <g
     inkscape:label="Layer 1"
     inkscape:groupmode="layer"
     id="layer1"
     transform="translate(-10,-1.8528455)">
    <circle
       style="fill:#4d4d4d"
       id="path103"
       cx="14"
       cy="14"
       r="4" />
    <circle
       style="fill:#4d4d4d"
       id="path103-3"
       cx="24"
       cy="14"
       r="4" />
    <circle
       style="fill:#00d400"
       id="path103-3-6"
       cx="54"
       cy="14"
       r="4" />
    <circle
       style="fill:#00d400"
       id="path103-3-6-5"
       cx="64"
       cy="14"
       r="4" />
    <circle
       style="fill:#4d4d4d"
       id="path103-3-5"
       cx="44"
       cy="14"
       r="4" />
    <circle
       style="fill:#00d400"
       id="path103-3-3"
       cx="34"
       cy="14"
       r="4" />
    <circle
       style="fill:#ff0000"
       id="path103-6"
       cx="14"
       cy="24"
       r="4" />
    <circle
       style="fill:#ffff00"
       id="path103-3-2"
       cx="24"
       cy="24"
       r="4" />
    <circle
       style="fill:#4d4d4d"
       id="path103-3-6-9"
       cx="54"
       cy="24"
       r="4" />
    <circle
       style="fill:#ff0000"
       id="path103-3-6-5-1"
       cx="63.999996"
       cy="24"
       r="4" />
    <circle
       style="fill:#ffff00"
       id="path103-3-5-2"
       cx="44"
       cy="24"
       r="4" />
    <circle
       style="fill:#4d4d4d"
       id="path103-3-3-7"
       cx="34"
       cy="24"
       r="4" />
    <circle
       style="fill:#4d4d4d"
       id="path103-0"
       cx="14"
       cy="34"
       r="4" />
    <circle
       style="fill:#ffff00;fill-opacity:1"
       id="path103-3-9"
       cx="24"
       cy="34"
       r="4" />
    <circle
       style="fill:#ff0000"
       id="path103-3-6-3"
       cx="54"
       cy="34"
       r="4" />
    <circle
       style="fill:#00d400"
       id="path103-3-6-5-6"
       cx="64"
       cy="34"
       r="4" />
    <circle
       style="fill:#4d4d4d"
       id="path103-3-5-0"
       cx="44"
       cy="34"
       r="4" />
    <circle
       style="fill:#00d400"
       id="path103-3-3-6"
       cx="34"
       cy="34"
       r="4" />
    <circle
       style="fill:#4d4d4d"
       id="path103-6-2"
       cx="14"
       cy="44"
       r="4" />
    <circle
       style="fill:#00d400"
       id="path103-3-2-6"
       cx="24"
       cy="44"
       r="4" />
    <circle
       style="fill:#ffff00;fill-opacity:1"
       id="path103-3-6-9-1"
       cx="54"
       cy="44"
       r="4" />
    <circle
       style="fill:#00d400"
       id="path103-3-6-5-1-8"
       cx="63.999996"
       cy="44"
       r="4" />
    <circle
       style="fill:#00d400"
       id="path103-3-5-2-7"
       cx="44"
       cy="44"
       r="4" />
    <circle
       style="fill:#ff0000"
       id="path103-3-3-7-9"
       cx="34"
       cy="44"
       r="4" />
    <circle
       style="fill:#ff0000"
       id="path103-2"
       cx="14"
       cy="54"
       r="4" />
    <circle
       style="fill:#00d400"
       id="path103-3-0"
       cx="24"
       cy="54"
       r="4" />
    <circle
       style="fill:#00d400;fill-opacity:1"
       id="path103-3-6-2"
       cx="54"
       cy="54"
       r="4" />
    <circle
       style="fill:#ffff00"
       id="path103-3-6-5-3"
       cx="64"
       cy="54"
       r="4" />
    <circle
       style="fill:#ff0000"
       id="path103-3-5-7"
       cx="44.000004"
       cy="54"
       r="4" />
    <circle
       style="fill:#4d4d4d"
       id="path103-3-3-5"
       cx="34.000004"
       cy="54"
       r="4" />
    <circle
       style="fill:#00d400"
       id="path103-6-9"
       cx="14"
       cy="64"
       r="4" />
    <circle
       style="fill:#ff0000"
       id="path103-3-2-2"
       cx="24"
       cy="64"
       r="4" />
    <circle
       style="fill:#ffff00"
       id="path103-3-6-9-2"
       cx="54"
       cy="64"
       r="4" />
    <circle
       style="fill:#ff0000"
       id="path103-3-6-5-1-89"
       cx="64"
       cy="64"
       r="4" />
    <circle
       style="fill:#4d4d4d;fill-opacity:1"
       id="path103-3-5-2-73"
       cx="44.000004"
       cy="64"
       r="4" />
    <circle
       style="fill:#ffff00"
       id="path103-3-3-7-6"
       cx="34.000004"
       cy="64"
       r="4" />
    <g
       aria-label="mepylome"
       transform="matrix(0.26458333,0,0,0.26458333,5.4953081,-13.938115)"
       id="text6928"
       style="font-size:333.333px;line-height:1.25;font-family:Cabin;-inkscape-font-specification:Cabin;white-space:pre;shape-inside:url(#rect6930);fill:#fe0000;fill-opacity:1">
      <path
         d="m 535.08437,309.68213 v -96.33324 c 0,-47.99996 -21.66665,-70.33327 -62.66661,-70.33327 -30.3333,0 -48.99995,12.33332 -59.66661,32.66664 -14.99998,-27.33331 -36.33329,-32.66664 -55.33328,-32.66664 -17.33331,0 -30.3333,4 -48.99995,20.66665 l -3.33333,-17.33332 h -23.33331 v 163.33318 h 29.99997 V 191.01558 c 8.33333,-14.66666 24.66665,-21.33332 43.33329,-21.33332 22.66665,0 38.3333,9.99999 38.3333,49.99995 v 89.99992 h 29.99997 v -94.66658 c 0,-18.33331 5,-45.33329 43.33329,-45.33329 26.99998,0 38.3333,13.33332 38.3333,43.99996 v 95.99991 z"
         id="path16795"
         style="fill:#fe0000;fill-opacity:1" />
      <path
         d="m 713.08382,228.01554 c 1,-5.66666 1.33333,-11.33332 1.33333,-15.99998 0,-43.99996 -29.66664,-68.99994 -70.33326,-68.99994 -50.66662,0 -79.99993,37.99997 -79.99993,83.66659 0,46.99995 30.66664,86.33325 88.33325,86.33325 23.66664,0 41.99996,-7 54.66661,-12.66666 l -3.99999,-23.66664 c -14.66665,6.66666 -31.99997,9.66666 -46.99996,9.66666 -30.99997,0 -56.99994,-12.99999 -61.33327,-58.33328 z m -69.6666,-58.33328 c 27.33331,0 39.99996,14.66666 39.99996,37.66663 h -85.99992 c 6,-23.66664 19.33332,-37.66663 45.99996,-37.66663 z"
         id="path16797"
         style="fill:#fe0000;fill-opacity:1" />
      <path
         d="m 826.08344,313.01546 c 48.33328,0 72.99993,-37.3333 72.99993,-84.99992 0,-44.66662 -26.99998,-84.99992 -72.6666,-84.99992 -26.66664,0 -40.99996,9.66666 -54.99995,26.66664 l -3.33333,-23.33331 h -23.33331 v 243.99976 h 29.99997 V 289.01548 c 12.33333,15.99998 36.66664,23.99998 51.33329,23.99998 z m -3.33333,-143.3332 c 28.66664,0 45.66662,24.99998 45.66662,58.33328 0,31.99997 -16.99998,58.33328 -45.66662,58.33328 -23.99998,0 -49.66662,-17.33332 -49.66662,-58.33328 0,-39.3333 25.66664,-58.33328 49.66662,-58.33328 z"
         id="path16799"
         style="fill:#fe0000;fill-opacity:1" />
      <path
         d="m 1072.4157,146.34895 h -33.3333 L 993.08248,267.68217 942.08253,146.34895 h -33.33331 l 67.99994,155.99985 -37.66663,87.99991 h 33.3333 z"
         id="path16801"
         style="fill:#fe0000;fill-opacity:1" />
      <path
         d="m 1151.082,289.01548 c -22.9999,0 -26.3333,-4.66666 -26.3333,-32.66663 V 59.682371 h -29.9999 V 273.68216 c 0,19.66665 10.6666,39.3333 42.3333,39.3333 h 9.6666 z"
         id="path16803"
         style="fill:#fe0000;fill-opacity:1" />
      <path
         d="m 1243.4143,313.01546 c 51,0 80.9999,-37.66663 80.9999,-84.99992 0,-47.33329 -29.9999,-84.99992 -80.9999,-84.99992 -51.3333,0 -80.9999,37.66663 -80.9999,84.99992 0,47.33329 29.6666,84.99992 80.9999,84.99992 z m 0,-143.3332 c 32.3333,0 50.3333,21.66665 50.3333,58.33328 0,36.66663 -18,58.33328 -50.3333,58.33328 -32.3333,0 -50.3333,-21.66665 -50.3333,-58.33328 0,-36.66663 18,-58.33328 50.3333,-58.33328 z"
         id="path16805"
         style="fill:#fe0000;fill-opacity:1" />
      <path
         d="m 1608.747,309.68213 v -96.33324 c 0,-47.99996 -21.6667,-70.33327 -62.6666,-70.33327 -30.3333,0 -49,12.33332 -59.6666,32.66664 -15,-27.33331 -36.3333,-32.66664 -55.3333,-32.66664 -17.3333,0 -30.3333,4 -49,20.66665 l -3.3333,-17.33332 h -23.3333 v 163.33318 h 30 V 191.01558 c 8.3333,-14.66666 24.6666,-21.33332 43.3332,-21.33332 22.6667,0 38.3333,9.99999 38.3333,49.99995 v 89.99992 h 30 v -94.66658 c 0,-18.33331 5,-45.33329 43.3333,-45.33329 27,0 38.3333,13.33332 38.3333,43.99996 v 95.99991 z"
         id="path16807"
         style="fill:#fe0000;fill-opacity:1" />
      <path
         d="m 1786.7465,228.01554 c 1,-5.66666 1.3333,-11.33332 1.3333,-15.99998 0,-43.99996 -29.6666,-68.99994 -70.3332,-68.99994 -50.6666,0 -79.9999,37.99997 -79.9999,83.66659 0,46.99995 30.6666,86.33325 88.3332,86.33325 23.6666,0 42,-7 54.6666,-12.66666 l -4,-23.66664 c -14.6666,6.66666 -32,9.66666 -46.9999,9.66666 -31,0 -57,-12.99999 -61.3333,-58.33328 z m -69.6666,-58.33328 c 27.3333,0 40,14.66666 40,37.66663 H 1671.08 c 5.9999,-23.66664 19.3333,-37.66663 45.9999,-37.66663 z"
         id="path16809"
         style="fill:#fe0000;fill-opacity:1" />
    </g>
  </g>
</svg>
